<svg xmlns="http://www.w3.org/2000/svg" width="76.614" height="61.293" viewBox="0 0 76.614 61.293">
  <path id="Icon_awesome-github-alt" data-name="Icon awesome-github-alt" d="M29.7,46.75c0,3.336-1.74,8.795-5.858,8.795s-5.858-5.459-5.858-8.795,1.74-8.795,5.858-8.795S29.7,43.414,29.7,46.75Zm46.91-8.06c0,5.092-.511,10.487-2.793,15.163C67.772,66.079,51.14,65.791,39.233,65.791c-12.1,0-29.72.431-36.009-11.939A34.165,34.165,0,0,1,0,38.689,27.449,27.449,0,0,1,6.624,20.557a24.986,24.986,0,0,1-1.229-7.789c0-3.432.782-5.156,2.33-8.268,7.23,0,11.859,1.437,17.366,5.746a61.139,61.139,0,0,1,14.158-1.6,55.059,55.059,0,0,1,12.833,1.468C57.509,5.857,62.137,4.5,69.288,4.5c1.564,3.112,2.33,4.836,2.33,8.268a24.635,24.635,0,0,1-1.229,7.693c4.389,5.171,6.225,11.54,6.225,18.228ZM66.351,46.75c0-7.007-4.262-13.184-11.732-13.184a65.627,65.627,0,0,0-8.938.958,46.9,46.9,0,0,1-7.2.511,47.185,47.185,0,0,1-7.2-.511,64.562,64.562,0,0,0-8.938-.958c-7.47,0-11.732,6.177-11.732,13.184,0,14.014,12.833,16.169,24.006,16.169h7.693c11.221,0,24.038-2.139,24.038-16.169ZM53.167,37.955c-4.118,0-5.858,5.459-5.858,8.795s1.74,8.795,5.858,8.795,5.858-5.459,5.858-8.795S57.285,37.955,53.167,37.955Z" transform="translate(0 -4.5)"/>
</svg>
